<?xml version="1.0" encoding="UTF-8"?><svg id="_景" xmlns="http://www.w3.org/2000/svg" viewBox="0 0 1518 759"><defs><style>.cls-1{fill:gold;}.cls-2{fill:#070707;}</style></defs><rect class="cls-1" x="210.89" y="185.24" width="1096.23" height="388.52"/><g><polygon class="cls-2" points="289.95 487.13 318.17 453.5 282.89 453.5 254.67 487.13 289.95 487.13"/><polygon class="cls-2" points="368.72 487.13 396.93 453.5 361.65 453.5 333.44 487.13 368.72 487.13"/><polygon class="cls-2" points="447.48 487.13 475.69 453.5 440.42 453.5 412.2 487.13 447.48 487.13"/><polygon class="cls-2" points="526.24 487.13 554.46 453.5 519.18 453.5 490.96 487.13 526.24 487.13"/><polygon class="cls-2" points="605.01 487.13 633.22 453.5 597.94 453.5 569.73 487.13 605.01 487.13"/><polygon class="cls-2" points="683.77 487.13 711.98 453.5 676.7 453.5 648.49 487.13 683.77 487.13"/><polygon class="cls-2" points="762.53 487.13 790.75 453.5 755.47 453.5 727.25 487.13 762.53 487.13"/><polygon class="cls-2" points="841.29 487.13 869.51 453.5 834.23 453.5 806.02 487.13 841.29 487.13"/><polygon class="cls-2" points="920.06 487.13 948.27 453.5 912.99 453.5 884.78 487.13 920.06 487.13"/><polygon class="cls-2" points="998.82 487.13 1027.04 453.5 991.76 453.5 963.54 487.13 998.82 487.13"/><polygon class="cls-2" points="1077.58 487.13 1105.8 453.5 1070.52 453.5 1042.31 487.13 1077.58 487.13"/><polygon class="cls-2" points="1156.35 487.13 1184.56 453.5 1149.28 453.5 1121.07 487.13 1156.35 487.13"/><polygon class="cls-2" points="1235.11 487.13 1263.33 453.5 1228.05 453.5 1199.83 487.13 1235.11 487.13"/></g><g><polygon class="cls-2" points="289.95 252.08 318.17 218.45 282.89 218.45 254.67 252.08 289.95 252.08"/><polygon class="cls-2" points="368.72 252.08 396.93 218.45 361.65 218.45 333.44 252.08 368.72 252.08"/><polygon class="cls-2" points="447.48 252.08 475.69 218.45 440.42 218.45 412.2 252.08 447.48 252.08"/><polygon class="cls-2" points="526.24 252.08 554.46 218.45 519.18 218.45 490.96 252.08 526.24 252.08"/><polygon class="cls-2" points="605.01 252.08 633.22 218.45 597.94 218.45 569.73 252.08 605.01 252.08"/><polygon class="cls-2" points="683.77 252.08 711.98 218.45 676.7 218.45 648.49 252.08 683.77 252.08"/><polygon class="cls-2" points="762.53 252.08 790.75 218.45 755.47 218.45 727.25 252.08 762.53 252.08"/><polygon class="cls-2" points="841.29 252.08 869.51 218.45 834.23 218.45 806.02 252.08 841.29 252.08"/><polygon class="cls-2" points="920.06 252.08 948.27 218.45 912.99 218.45 884.78 252.08 920.06 252.08"/><polygon class="cls-2" points="998.82 252.08 1027.04 218.45 991.76 218.45 963.54 252.08 998.82 252.08"/><polygon class="cls-2" points="1077.58 252.08 1105.8 218.45 1070.52 218.45 1042.31 252.08 1077.58 252.08"/><polygon class="cls-2" points="1156.35 252.08 1184.56 218.45 1149.28 218.45 1121.07 252.08 1156.35 252.08"/><polygon class="cls-2" points="1235.11 252.08 1263.33 218.45 1228.05 218.45 1199.83 252.08 1235.11 252.08"/></g><g><path class="cls-2" d="M357.99,435.89l-3.25-22.29h37.36c2.63,0,3.72-1.18,3.72-4.05v-45.59h-39.84v-22.12l32.71-41.88h-64.95l-12.87,117.87c-1.24,11.99-6.82,18.07-17.67,18.07h-14.26l-3.57-22.29h4.96c3.57,0,5.27-1.69,5.74-5.57l12.25-108.08h-20.62v-22.12h142.3v22.12l-30.69,41.88h31.78v77.85c0,10.81-4.96,16.21-14.73,16.21h-48.36Z"/><path class="cls-2" d="M569.11,433.87c-9.3,0-14.42-5.07-15.04-15.2l-6.82-108.08h-20.46v125.3h-25.42v-125.3h-19.69l-8.99,105.21c-1.08,11.99-6.82,18.07-17.52,18.07h-11.94l-3.57-22.12h2.63c3.41,0,5.43-1.86,5.74-5.74l8.22-95.41h-14.88v-22.29h59.99v-12.67h25.42v12.67h59.84v22.29h-14.11l6.98,96.76c.16,2.87,1.71,4.39,4.34,4.39h3.41v22.12h-18.14Z"/><path class="cls-2" d="M740.25,435.89c-7.29,0-13.18-3.21-17.67-9.79l-4.34-8.44-.78,2.2c-3.72,10.47-9.3,16.04-18.91,16.04h-12.56l-2.79-18.24v2.03c0,10.81-4.96,16.21-14.88,16.21h-63.87v-22.29h12.25v-99.13h-11.01v-22.12h11.01v-16.72h25.27v16.72h12.09v22.12h-12.09v99.13h12.71c2.17-.34,3.25-1.52,3.25-4.05v-131.72h93.63v22.12h-68.36v14.02h66.35v25.16l-19.84,50.15,11.63,22.63c1.4,1.01,3.26,1.69,5.58,1.69h4.65v22.29h-11.32Zm-15.19-99.63h-41.85v7.26h23.25l9.15,17.9,9.46-25.16Zm-20.62,53.53l-21.24-43.23v67.04h7.91c2.79,0,4.81-1.35,5.89-4.39l7.44-19.42Z"/><path class="cls-2" d="M770.63,432.68l-3.1-20.94h1.55c1.55,0,2.48-.51,3.1-1.35,.62-.84,.93-1.86,.93-3.21v-23.98h11.94v37.83c0,2.7-.78,5.24-2.63,7.6-2.17,2.7-4.65,4.05-7.91,4.05h-3.88Zm20.15,3.21v-61.3h-20.15v-20.43l26.82-27.69h-26.66v-22.29l26.04-27.86h31.31l-26.04,27.86h28.21v20.1l-26.97,28.03h12.71c2.48,0,3.72-1.35,3.72-4.05v-5.4h13.18v15.54c0,10.81-4.96,16.21-14.88,16.21h-2.01v61.3h-25.27Zm30.23-4.56v-48.13h11.94v48.13h-11.94Zm60.3-77.85l-3.41-22.29h7.13c2.63,0,3.72-1.35,3.72-4.05v-27.19h-14.73l-7.13,39.68c-1.71,9.63-6.98,14.52-16.28,14.52h-12.09l-3.57-22.29h5.27c2.17,0,3.26-1.52,3.88-4.56l5.12-27.36h-12.09v-22.12h76.89v59.44c0,10.81-4.96,16.21-14.73,16.21h-17.98Zm-39.68,82.41v-75.65h71.93v59.44c0,10.81-5.12,16.21-14.88,16.21h-57.04Zm46.5-53.36h-21.24v31.07h17.52c2.63,0,3.72-1.18,3.72-4.05v-27.02Z"/><path class="cls-2" d="M936.02,435.89l-3.26-22.29h14.26c1.86,0,3.41-.68,4.34-1.69,.77-1.18,1.24-2.53,1.24-4.39v-64.68h25.27v76.5c0,3.72-1.24,7.6-3.88,10.98-2.95,3.88-6.82,5.57-11.47,5.57h-26.51Zm122.62-100.31c-6.36,0-10.7-3.72-13.49-11.48l-6.2-24.15h-62.94l-6.36,23.64c-2.95,8.11-7.6,11.99-13.64,11.99h-22.94v-22.12h9.3c2.17,0,3.88-1.18,4.65-3.72l9.3-31.92h102.46l9.77,33.44c.46,1.52,1.86,2.2,3.72,2.2h7.91v22.12h-21.55Zm-21.86,100.31v-93.05h25.27v93.05h-25.27Z"/><path class="cls-2" d="M1180.94,417.49v18.41h-25.42v-18.41h-57.51v-129.18h57.51v-12.67h25.42v12.67h56.89v112.97c0,10.81-4.96,16.21-14.88,16.21h-42.01Zm-25.42-106.89h-32.24v84.6h32.24v-84.6Zm57.04,0h-31.62v84.6h27.75c2.63,0,3.88-1.35,3.88-4.05v-80.55Z"/></g><g><path class="cls-2" d="M304.68,540.55v-18.83c0-3.07-1.76-4.77-4.34-4.77-2.74,0-5.16,1.54-5.93,4.23v19.37h-9.6v-30.57h8.73v3.62c1.54-2.85,4.67-4.34,9.66-4.34,6.81,0,11.14,5.05,11.14,11.2v20.09h-9.66Z"/><path class="cls-2" d="M340.91,541.26c-9.99,0-16.14-6.31-16.14-15.97s6.15-16.03,16.14-16.03,16.03,6.31,16.03,16.03-6.04,15.97-16.03,15.97Zm6.26-15.97c0-5.16-2.36-8.34-6.26-8.34s-6.37,3.18-6.37,8.34,2.47,8.4,6.37,8.4,6.26-3.18,6.26-8.4Z"/><path class="cls-2" d="M386.91,536.6c-1.59,1.48-4.45,2.36-7.57,2.36-7.79,0-13.56-4.94-13.56-14.54s5.82-15.15,13.17-15.15c4.5,0,7.52,1.26,8.89,3.57l1.32-2.85h6.97v29.09c0,8.45-4.56,12.68-17.18,12.68-3.57,0-7.52-.44-9.28-.77l-2.25-8.56c3.07,.88,8.29,1.54,11.2,1.54,6.64,0,8.29-1.92,8.29-5.38v-1.98Zm0-15.97c-.93-2.2-2.85-3.73-5.65-3.73-3.57,0-6.04,2.42-6.04,7.57s2.47,7.74,6.15,7.74c3.02,0,5.54-2.09,5.54-5.16v-6.42Z"/><path class="cls-2" d="M408.26,506.3v-8.56h9.93v8.56h-9.93Zm.16,34.25v-30.57h9.66v30.57h-9.66Z"/><path class="cls-2" d="M428.63,540.55v-6.09l14.21-16.63h-13.06v-7.85h25.08v6.31l-14.05,16.41h14.65v7.85h-26.84Z"/><path class="cls-2" d="M493.67,540.93c-.93,.22-1.87,.33-2.8,.33-3.24,0-6.2-1.32-6.86-3.51-1.98,2.52-6.04,3.51-10.37,3.51-6.2,0-9.55-3.24-9.6-8.45v-.16c0-5.76,3.24-9.11,10.65-10.7,3.95-.82,6.53-1.87,6.53-3.13,0-1.76-.99-2.14-3.95-2.14-2.47,0-6.86,1.87-8.78,4.45l-3.79-6.81c3.02-3.24,7.35-5.05,13.39-5.05,8.95,0,13.17,3.4,13.17,10.15v11.64c0,1.65,1.15,2.25,2.8,2.25,.49,0,.99-.05,1.48-.11l-1.87,7.74Zm-12.18-15.2c-.88,.77-2.36,1.43-4.39,1.98-2.58,.71-3.79,1.76-3.79,4.06,0,1.48,1.04,2.31,3.02,2.31s4.61-1.37,5.16-3.51v-4.83Z"/><path class="cls-2" d="M523.15,540.55l-7.41-11.91-2.25,2.91v9h-9.22v-42.81h9.66v15.7c0,3.18-.38,8.23-.38,8.23h.17s.71-1.98,2.47-4.23l5.82-7.46h10.48l-10.32,12.29,11.64,18.28h-10.65Z"/><path class="cls-2" d="M569.42,540.93c-.93,.22-1.87,.33-2.8,.33-3.24,0-6.2-1.32-6.86-3.51-1.98,2.52-6.04,3.51-10.37,3.51-6.2,0-9.55-3.24-9.6-8.45v-.16c0-5.76,3.24-9.11,10.65-10.7,3.95-.82,6.53-1.87,6.53-3.13,0-1.76-.99-2.14-3.95-2.14-2.47,0-6.86,1.87-8.78,4.45l-3.79-6.81c3.02-3.24,7.35-5.05,13.39-5.05,8.95,0,13.17,3.4,13.17,10.15v11.64c0,1.65,1.15,2.25,2.8,2.25,.49,0,.99-.05,1.48-.11l-1.87,7.74Zm-12.18-15.2c-.88,.77-2.36,1.43-4.39,1.98-2.58,.71-3.79,1.76-3.79,4.06,0,1.48,1.04,2.31,3.02,2.31s4.61-1.37,5.16-3.51v-4.83Z"/><path class="cls-2" d="M624.09,540.55v-3.51c-1.7,3.07-5.32,4.23-9.5,4.23-6.7,0-11.31-4.56-11.31-10.65v-20.64h9.66v18.44c0,3.02,1.76,4.72,4.39,4.72s5.1-1.48,5.87-4.23v-18.94h9.61v30.57h-8.73Z"/><path class="cls-2" d="M664.82,540.55v-18.83c0-3.07-1.76-4.77-4.34-4.77-2.74,0-5.16,1.54-5.93,4.23v19.37h-9.6v-30.57h8.73v3.62c1.54-2.85,4.67-4.34,9.66-4.34,6.81,0,11.14,5.05,11.14,11.2v20.09h-9.66Z"/><path class="cls-2" d="M708.24,540.55v-3.62c-1.76,3.4-5.93,4.34-9.17,4.34-8.18,0-14.16-5.54-14.16-15.97s6.7-16.03,14.05-16.03c3.57,0,6.04,.99,7.57,2.52v-14.05h9.6v42.81h-7.9Zm-1.48-19.7c-.77-2.14-2.75-3.95-5.6-3.95-3.57,0-6.48,2.85-6.48,8.56s2.63,8.29,6.53,8.29c3.07,0,5.54-2.47,5.54-6.04v-6.86Z"/><path class="cls-2" d="M735.41,528.69c.66,3.13,3.73,4.99,7.52,4.99,3.57,0,6.92-1.48,8.89-4.34l4.61,5.6c-3.57,4.28-7.35,6.31-14.22,6.31-9.38,0-15.59-6.26-15.59-16.03,0-8.78,5.43-15.97,15.37-15.97,9.06,0,14.76,6.15,14.76,15.59,0,.38-.05,.82-.05,1.21l-21.3,2.63Zm12.35-7.79c-.38-2.47-2.58-4.17-5.82-4.17-3.73,0-6.26,2.2-6.64,5.76l12.46-1.59Z"/><path class="cls-2" d="M767.14,540.55v-30.57h8.29v3.02c2.2-2.63,5-3.68,10.7-3.73l1.37,8.18c-1.26-.27-2.47-.38-3.57-.38-3.51,0-5.98,1.37-7.19,4.06v19.43h-9.6Z"/><path class="cls-2" d="M820.11,506.3v-8.56h9.93v8.56h-9.93Zm.16,34.25v-30.57h9.66v30.57h-9.66Z"/><path class="cls-2" d="M862.04,540.55v-18.83c0-3.07-1.76-4.77-4.34-4.77-2.74,0-5.16,1.54-5.93,4.23v19.37h-9.6v-30.57h8.73v3.62c1.54-2.85,4.67-4.34,9.66-4.34,6.81,0,11.14,5.05,11.14,11.2v20.09h-9.66Z"/><path class="cls-2" d="M900.57,541.26c-10.81,0-14.71-2.2-14.71-9.93v-13.94h-4.39v-7.41h4.83v-9.55h9.17v9.55h5.16v7.41h-5.16v11.86c0,4.01,.66,4.12,6.81,4.12l-1.7,7.9Z"/><path class="cls-2" d="M911.55,540.55v-30.57h8.29v3.02c2.2-2.63,5-3.68,10.7-3.73l1.37,8.18c-1.26-.27-2.47-.38-3.57-.38-3.51,0-5.98,1.37-7.19,4.06v19.43h-9.6Z"/><path class="cls-2" d="M955.41,541.26c-9.99,0-16.14-6.31-16.14-15.97s6.15-16.03,16.14-16.03,16.03,6.31,16.03,16.03-6.04,15.97-16.03,15.97Zm6.26-15.97c0-5.16-2.36-8.34-6.26-8.34s-6.37,3.18-6.37,8.34,2.47,8.4,6.37,8.4,6.26-3.18,6.26-8.4Z"/><path class="cls-2" d="M1003.61,540.55v-3.62c-1.76,3.4-5.93,4.34-9.17,4.34-8.18,0-14.16-5.54-14.16-15.97s6.7-16.03,14.05-16.03c3.57,0,6.04,.99,7.57,2.52v-14.05h9.6v42.81h-7.9Zm-1.48-19.7c-.77-2.14-2.75-3.95-5.6-3.95-3.57,0-6.48,2.85-6.48,8.56s2.63,8.29,6.53,8.29c3.07,0,5.54-2.47,5.54-6.04v-6.86Z"/><path class="cls-2" d="M1044.39,540.55v-3.51c-1.7,3.07-5.32,4.23-9.5,4.23-6.7,0-11.31-4.56-11.31-10.65v-20.64h9.66v18.44c0,3.02,1.76,4.72,4.39,4.72s5.1-1.48,5.87-4.23v-18.94h9.61v30.57h-8.73Z"/><path class="cls-2" d="M1092.31,536.82c-3.02,2.96-6.42,4.45-12.29,4.45-8.73,0-16.41-5.49-16.41-16.03,0-9.77,6.75-15.97,16.41-15.97,5.38,0,8.78,1.32,11.75,3.62l-3.02,7.41c-1.81-2.25-4.56-3.29-7.35-3.29-3.9,0-8.07,2.63-8.07,8.23s3.95,8.4,8.29,8.4c2.74,0,5.98-1.37,7.68-3.68l3.02,6.86Z"/><path class="cls-2" d="M1118.66,541.26c-10.81,0-14.71-2.2-14.71-9.93v-13.94h-4.39v-7.41h4.83v-9.55h9.17v9.55h5.16v7.41h-5.16v11.86c0,4.01,.66,4.12,6.81,4.12l-1.7,7.9Z"/><path class="cls-2" d="M1129.64,506.3v-8.56h9.93v8.56h-9.93Zm.16,34.25v-30.57h9.66v30.57h-9.66Z"/><path class="cls-2" d="M1166.19,541.26c-9.99,0-16.14-6.31-16.14-15.97s6.15-16.03,16.14-16.03,16.03,6.31,16.03,16.03-6.04,15.97-16.03,15.97Zm6.26-15.97c0-5.16-2.36-8.34-6.26-8.34s-6.37,3.18-6.37,8.34,2.47,8.4,6.37,8.4,6.26-3.18,6.26-8.4Z"/><path class="cls-2" d="M1212.58,540.55v-18.83c0-3.07-1.76-4.77-4.34-4.77-2.74,0-5.16,1.54-5.93,4.23v19.37h-9.6v-30.57h8.73v3.62c1.54-2.85,4.67-4.34,9.66-4.34,6.81,0,11.14,5.05,11.14,11.2v20.09h-9.66Z"/></g></svg>